<?xml version="1.0" encoding="UTF-8" standalone="no"?>
<svg
   xmlns:dc="http://purl.org/dc/elements/1.1/"
   xmlns:cc="http://creativecommons.org/ns#"
   xmlns:rdf="http://www.w3.org/1999/02/22-rdf-syntax-ns#"
   xmlns:svg="http://www.w3.org/2000/svg"
   xmlns="http://www.w3.org/2000/svg"
   version="1.1"
   id="svg4244"
   viewBox="0 0 32 32.000001"
   height="32"
   width="50">
  <defs
     id="defs4246" />
  <metadata
     id="metadata4249">
    <rdf:RDF>
      <cc:Work
         rdf:about="">
        <dc:format>image/svg+xml</dc:format>
        <dc:type
           rdf:resource="http://purl.org/dc/dcmitype/StillImage" />
        <dc:title />
      </cc:Work>
    </rdf:RDF>
  </metadata>
  <g
     transform="translate(0,-1020.3622)"
     id="layer1">
    <g
       transform="translate(-4.2590071,-3.0333347)"
       id="g4783">
      <g
         id="g6334">
        <path
           style="fill:#e6001f;fill-opacity:1;stroke:none;stroke-width:1;stroke-opacity:1"
           d="m 20.259007,1029.3956 c -5.54,0 -10,4.46 -10,10 l 0,6 c 0,1.1174 0,2.8447 0,2.8447 l 5,0 10,0 0,-8.3447 c 0,-0.831 0.669,-1.5 1.5,-1.5 0.831,0 1.5,0.669 1.5,1.5 l 0,4.5 2,0 0,-5 c 0,-5.54 -4.46,-10 -10,-10 z"
           id="rect3828" />
        <path
           style="fill:#c7c6ce;fill-opacity:1;stroke:none;stroke-width:1;stroke-opacity:1"
           d="m 30.759007,1044.8955 a 1.5,1.5 0 0 1 -1.5,1.5 1.5,1.5 0 0 1 -1.5,-1.5 1.5,1.5 0 0 1 1.5,-1.5 1.5,1.5 0 0 1 1.5,1.5 z"
           id="path3834" />
        <path
           style="fill:#c7c6ce;fill-opacity:1;stroke:none;stroke-width:1;stroke-opacity:1"
           d="m 10.259057,1046.3955 14.999901,0 c 0.554027,0 1.000049,0.446 1.000049,1.0001 l 0,1.9999 c 0,0.554 -0.446022,1 -1.000049,1 l -14.999901,0 c -0.5540273,0 -1.0000495,-0.446 -1.0000495,-1 l 0,-1.9999 c 0,-0.5541 0.4460222,-1.0001 1.0000495,-1.0001 z"
           id="rect3826" />
        <path
           style="color:#000000;font-style:normal;font-variant:normal;font-weight:normal;font-stretch:normal;font-size:medium;line-height:normal;font-family:sans-serif;text-indent:0;text-align:start;text-decoration:none;text-decoration-line:none;text-decoration-style:solid;text-decoration-color:#000000;letter-spacing:normal;word-spacing:normal;text-transform:none;direction:ltr;block-progression:tb;writing-mode:lr-tb;baseline-shift:baseline;text-anchor:start;white-space:normal;clip-rule:nonzero;display:inline;overflow:visible;visibility:visible;opacity:1;isolation:auto;mix-blend-mode:normal;color-interpolation:sRGB;color-interpolation-filters:linearRGB;solid-color:#000000;solid-opacity:1;fill:#990012;fill-opacity:1;fill-rule:nonzero;stroke:none;stroke-width:0.99999994;stroke-linecap:butt;stroke-linejoin:miter;stroke-miterlimit:4;stroke-dasharray:none;stroke-dashoffset:0;stroke-opacity:1;color-rendering:auto;image-rendering:auto;shape-rendering:auto;text-rendering:auto;enable-background:accumulate"
           d="m 20.216797,1030.3242 c -4.993124,0 -9.029297,4.0343 -9.029297,9.0274 l 1,0 c 0,-4.4564 3.572861,-8.0274 8.029297,-8.0274 l 0,-1 z"
           id="path3847" />
      </g>
    </g>
  </g>
</svg>
