<svg data-v-423bf9ae="" xmlns="http://www.w3.org/2000/svg" viewBox="0 0 287.3358347155349 60" class="font"><!----><!----><!----><g data-v-423bf9ae="" id="ac730cef-2d8f-4ad5-bc29-69bd5362eb75" fill="black" transform="matrix(5.628517904206723,0,0,5.628517904206723,-7.37335966913642,-32.02626767383979)"><path d="M2.63 6.78L2.63 16.19L1.31 16.19L1.31 5.69L3.62 5.69L13.24 14.88L13.24 5.69L14.55 5.69L14.55 16.19L12.80 16.19L2.63 6.78ZM17.18 16.19L17.18 8.31L18.49 8.31L18.49 16.19L17.18 16.19ZM18.49 5.69L18.49 7L17.18 7L17.18 5.69L18.49 5.69ZM20.68 16.19L20.68 5.69L21.99 5.69L21.99 11.43L22.43 11.43L27.24 8.31L29.21 8.31L23.63 11.98L29.43 16.19L27.46 16.19L22.43 12.41L21.99 12.41L21.99 16.19L20.68 16.19ZM30.74 16.19L30.74 8.31L32.05 8.31L32.05 16.19L30.74 16.19ZM32.05 5.69L32.05 7L30.74 7L30.74 5.69L32.05 5.69ZM40.80 12.69L41.90 12.69L41.90 12.69Q41.90 13.69 41.73 14.37L41.73 14.37L41.73 14.37Q41.57 15.04 41.18 15.44L41.18 15.44L41.18 15.44Q40.80 15.85 40.17 16.02L40.17 16.02L40.17 16.02Q39.54 16.19 38.62 16.19L38.62 16.19L38.62 16.19Q37.72 16.19 37.11 16.05L37.11 16.05L37.11 16.05Q36.50 15.91 36.13 15.59L36.13 15.59L36.13 15.59Q35.75 15.26 35.59 14.71L35.59 14.71L35.59 14.71Q35.42 14.16 35.42 13.34L35.42 13.34L35.42 9.39L33.80 9.39L33.80 8.31L35.42 8.31L35.42 6.16L36.74 6.16L36.74 8.31L41.68 8.31L41.68 9.39L36.74 9.39L36.74 13.34L36.74 13.34Q36.74 14 36.84 14.36L36.84 14.36L36.84 14.36Q36.93 14.71 37.15 14.88L37.15 14.88L37.15 14.88Q37.37 15.04 37.73 15.07L37.73 15.07L37.73 15.07Q38.09 15.09 38.61 15.09L38.61 15.09L38.61 15.09Q39.02 15.09 39.34 15.08L39.34 15.08L39.34 15.08Q39.67 15.07 39.91 14.99L39.91 14.99L39.91 14.99Q40.15 14.92 40.33 14.78L40.33 14.78L40.33 14.78Q40.50 14.63 40.60 14.36L40.60 14.36L40.60 14.36Q40.71 14.10 40.76 13.69L40.76 13.69L40.76 13.69Q40.80 13.28 40.80 12.69L40.80 12.69ZM51.05 16.19L51.05 15.11L51.05 15.11Q51.03 15.19 50.74 15.52L50.74 15.52L50.74 15.52Q50.54 15.76 50.20 15.95L50.20 15.95L50.20 15.95Q49.85 16.14 49.28 16.25L49.28 16.25L49.28 16.25Q48.71 16.35 47.78 16.35L47.78 16.35L47.78 16.35Q46.55 16.35 45.67 16.23L45.67 16.23L45.67 16.23Q44.80 16.10 44.24 15.84L44.24 15.84L44.24 15.84Q43.69 15.57 43.43 15.16L43.43 15.16L43.43 15.16Q43.18 14.75 43.18 14.18L43.18 14.18L43.18 14.18Q43.18 13.59 43.32 13.18L43.32 13.18L43.32 13.18Q43.46 12.76 43.73 12.48L43.73 12.48L43.73 12.48Q44.00 12.20 44.38 12.04L44.38 12.04L44.38 12.04Q44.76 11.89 45.25 11.81L45.25 11.81L45.25 11.81Q45.74 11.72 46.32 11.70L46.32 11.70L46.32 11.70Q46.90 11.68 47.56 11.68L47.56 11.68L47.56 11.68Q48.49 11.68 49.12 11.76L49.12 11.76L49.12 11.76Q49.75 11.84 50.15 11.96L50.15 11.96L50.15 11.96Q50.55 12.08 50.76 12.22L50.76 12.22L50.76 12.22Q50.96 12.35 51.05 12.47L51.05 12.47L51.05 12.47Q51.05 11.70 50.99 11.16L50.99 11.16L50.99 11.16Q50.92 10.62 50.77 10.26L50.77 10.26L50.77 10.26Q50.63 9.90 50.39 9.68L50.39 9.68L50.39 9.68Q50.16 9.47 49.82 9.36L49.82 9.36L49.82 9.36Q49.49 9.25 49.03 9.22L49.03 9.22L49.03 9.22Q48.58 9.19 48.00 9.19L48.00 9.19L48.00 9.19Q47.10 9.19 46.50 9.23L46.50 9.23L46.50 9.23Q45.91 9.28 45.56 9.41L45.56 9.41L45.56 9.41Q45.21 9.54 45.07 9.77L45.07 9.77L45.07 9.77Q44.93 9.99 44.93 10.36L44.93 10.36L43.61 10.36L43.61 10.36Q43.61 9.74 43.84 9.31L43.84 9.31L43.84 9.31Q44.06 8.88 44.57 8.61L44.57 8.61L44.57 8.61Q45.09 8.34 45.93 8.22L45.93 8.22L45.93 8.22Q46.77 8.09 48.00 8.09L48.00 8.09L48.00 8.09Q49.21 8.09 50.04 8.29L50.04 8.29L50.04 8.29Q50.87 8.49 51.39 8.99L51.39 8.99L51.39 8.99Q51.91 9.49 52.13 10.33L52.13 10.33L52.13 10.33Q52.36 11.18 52.36 12.47L52.36 12.47L52.36 16.19L51.05 16.19ZM48.00 15.31L48.00 15.31L48.00 15.31Q48.87 15.31 49.45 15.23L49.45 15.23L49.45 15.23Q50.04 15.15 50.39 14.98L50.39 14.98L50.39 14.98Q50.75 14.82 50.90 14.57L50.90 14.57L50.90 14.57Q51.05 14.33 51.05 14L51.05 14L51.05 14Q51.05 13.67 50.88 13.44L50.88 13.44L50.88 13.44Q50.70 13.21 50.30 13.07L50.30 13.07L50.30 13.07Q49.89 12.93 49.22 12.86L49.22 12.86L49.22 12.86Q48.55 12.80 47.56 12.80L47.56 12.80L47.56 12.80Q46.58 12.80 45.98 12.83L45.98 12.83L45.98 12.83Q45.37 12.87 45.04 12.99L45.04 12.99L45.04 12.99Q44.71 13.11 44.60 13.35L44.60 13.35L44.60 13.35Q44.49 13.59 44.49 14L44.49 14L44.49 14Q44.49 14.41 44.61 14.67L44.61 14.67L44.61 14.67Q44.73 14.92 45.10 15.07L45.10 15.07L45.10 15.07Q45.47 15.21 46.16 15.26L46.16 15.26L46.16 15.26Q46.85 15.31 48.00 15.31Z"></path></g><!----><!----></svg>